/* XPM */
static char *result[] = {
/* columns rows colors chars-per-pixel */
"32 32 54 1 ",
"  c black",
". c #4F2C14",
"X c #885B39",
"o c #839A71",
"O c #90A97E",
"+ c #D78244",
"@ c #93AC81",
"# c #97B085",
"$ c #99B187",
"% c #99B882",
"& c #9EBF86",
"* c #9CB588",
"= c #9DB688",
"- c #9CB788",
"; c #9CB48A",
": c #9DB58A",
"> c #9EB78C",
", c #9DB988",
"< c #9FB88C",
"1 c #A0B98D",
"2 c #A0BB8C",
"3 c #A1BA8D",
"4 c #A1BA8E",
"5 c #A2BB8F",
"6 c #A0BE8C",
"7 c #A1BC8E",
"8 c #A1BC8F",
"9 c #A3BC8F",
"0 c #A2BD90",
"q c #A3BE90",
"w c #A5BE90",
"e c #A4BF90",
"r c #A4BF91",
"t c #9EC086",
"y c #A2C48A",
"u c #A3C58A",
"i c #A5C78A",
"p c #A3C18E",
"a c #A4C88B",
"s c #A5C98C",
"d c #A8CC8E",
"f c #A6C191",
"g c #A5C390",
"h c #A7C390",
"j c #A5C092",
"k c #A6C293",
"l c #A5C690",
"z c #A9C791",
"x c #A8C693",
"c c #A9C594",
"v c #ABC997",
"b c #ADC998",
"n c #B1D895",
"m c #B3D19D",
/* pixels */
";;ui;;>;;;;;;;;;;;;;;;;;;;;;;;c;",
";;&i;;z;;;;;;;;;;;;;dd;;;;;;;;c;",
";;o&;;p;;;;;;;;x;;;;s&;;;;;;;b;;",
";;;o;;;;;;ss;;;7;;;;&o;;;;ss;;;;",
";;;;&;;b;&&s;;;;;;;;oo;;;;t&;;;;",
";;;;%&;j#a&o;;;;;;;;;;;;;&&o;;;;",
";m;;o&;;;&o;    ;;;;;>;;;&o;;;;;",
";b;;;o;;;&o; .. n;;;;v;;;;;;;;;;",
";;;;;        .X an;;;v;;;;;;;r;;",
";;;;  XX++++++X  a;;;#j;;;;;;r;;",
";;d; XXX++  ++++  ;;;;;;,6;;;;;;",
";;d& XX++++++++++ ;g;;;;#*;;;;;;",
";;d& X+++++++++++       ;>;;;i;;",
";;o& X+++++++++++++++++  ;;;&&;;",
";;;;         +++++++++++  ;;&o;;",
";;;;;;;;;;;; +++++++XX+++ ;;o;;;",
";1;;;;;;;;;; ++++++++++++ ;;;;;e",
";8;;9;;;bb;; +++++XX++XX+ ;;;;;e",
";#r;4;;;#j;;  +++++++++++   ;;;;",
";;#k;;;;;#;s  .++    ++++.. ;;;;",
";;;;;;;;;;;& ...  ;r    ... ;;;;",
";;;;;;;;;;;o ... ;;r;;;  .. ;e;;",
";;;;;;;;;;;;  .. ;;;;p;  .. ;<;;",
";;;;;;;;;;;;; .. ;;;;;p ..  ;;;;",
"f;;;ss;;;0;;;    i;;;;p    ;;;;;",
"3;;;s&&;;;5;q;;;&&o;;;;;;@s@;;;;",
";;;;o&&;;#4;w;;;&o;;;;;;Oy&&O;;;",
";;;;;o&;;;#8#;;;;;;;;<;;;o&o;;;;",
";p2:;;;;;;;;;;;;;;;;;<;;;;o;;;;;",
";p@#;l;;;;;;#2;;;;;;p;;;;;;;;;;;",
";h#;;p-;;;;;#pp;;;;;p;;;;;;;;;;;",
";<;;;;=$;;;;;#p;;;;;;;;;;;;;;;;;"
};
