/* XPM */
static char *result[] = {
/* columns rows colors chars-per-pixel */
"32 32 50 1 ",
"  c black",
". c #4F2C14",
"X c #885B39",
"o c #839A71",
"O c #90A97E",
"+ c #D78244",
"@ c #93AC81",
"# c #97B085",
"$ c #99B187",
"% c #99B882",
"& c #9EBF86",
"* c #9DB688",
"= c #9CB788",
"- c #9CB48A",
"; c #9DB58A",
": c #9EB78C",
"> c #9FB88C",
", c #A0B98D",
"< c #A0BB8C",
"1 c #A1BA8D",
"2 c #A1BA8E",
"3 c #A2BB8F",
"4 c #A1BC8E",
"5 c #A1BC8F",
"6 c #A3BC8F",
"7 c #A2BD90",
"8 c #A3BE90",
"9 c #A5BE90",
"0 c #A4BF90",
"q c #A4BF91",
"w c #9EC086",
"e c #A2C48A",
"r c #A3C58A",
"t c #A5C78A",
"y c #A3C18E",
"u c #A4C88B",
"i c #A5C98C",
"p c #A8CC8E",
"a c #A6C191",
"s c #A7C390",
"d c #A5C092",
"f c #A6C293",
"g c #A5C690",
"h c #A6C492",
"j c #A9C791",
"k c #A8C693",
"l c #A9C594",
"z c #ABC997",
"x c #ADC998",
"c c #B3D19D",
/* pixels */
"--rt--:-----------------------l-",
"--&t--j-------------pp--------l-",
"--o&--y--------k----i&-------x--",
"---o------ii---4----&o----ii----",
"----&--x-&&i--------oo----w&----",
"----%&-d#u&o-------------&&o----",
"-c--o&---&o-----    -:---&o-----",
"-x---o---&o----- .. -z----------",
"---------o------ X.        --q--",
"------------c--  X++++++XX  -q--",
"--p---------x-  ++++  ++XXX ----",
"--p&---------- ++++++++++XX ----",
"--p&----       +++++++++++X -t--",
"--o&---  +++++++++++++++++X &&--",
"------  +++++++++++         &o--",
"------ +++XX+++++++ -ii-----o---",
"-,---- ++++++++++++ -i&&-------0",
"-5--6- +XX++XX+++++ -o&&-------0",
"-#q-   +++++++++++  --o&--------",
"--#f ..++++    ++.  h-----------",
"---- ...    uo  ... ------------",
"---- ..  --ooo- ... ---------0--",
"---- ..  ------ ..  -y------->--",
"----  .. ------ .. ---y---------",
"a---i    7-----    ---y---#-----",
"1---i&&---3-8---&&o------@i@----",
"----o&&--#2-9---&o------Oe&&O---",
"-----o&---#5#-------->---o&o----",
"-y<;----------------->----o-----",
"-y@#-g------#<------y-----------",
"-s#--y=-----#yy-----y-----------",
"->----*$-----#y-----------------"
};
