/* XPM */
static char *result[] = {
/* columns rows colors chars-per-pixel */
"32 32 53 1 ",
"  c black",
". c #4F2C14",
"X c #885B39",
"o c #839A71",
"O c #90A97E",
"+ c #D78244",
"@ c #93AC81",
"# c #97B085",
"$ c #99B187",
"% c #99B882",
"& c #9EBF86",
"* c #9CB588",
"= c #9DB688",
"- c #9CB788",
"; c #9CB48A",
": c #9DB58A",
"> c #9EB78C",
", c #9DB988",
"< c #9FB88C",
"1 c #A0B98D",
"2 c #A0BB8C",
"3 c #A1BA8D",
"4 c #A1BA8E",
"5 c #A2BB8F",
"6 c #A0BE8C",
"7 c #A1BC8E",
"8 c #A1BC8F",
"9 c #A3BC8F",
"0 c #A2BD90",
"q c #A5BE90",
"w c #A4BF90",
"e c #A4BF91",
"r c #9EC086",
"t c #A2C48A",
"y c #A3C58A",
"u c #A5C78A",
"i c #A3C18E",
"p c #A4C88B",
"a c #A5C98C",
"s c #A8CC8E",
"d c #A6C191",
"f c #A7C390",
"g c #A5C092",
"h c #A6C293",
"j c #A5C690",
"k c #A9C791",
"l c #A8C693",
"z c #A9C594",
"x c #A9C595",
"c c #ABC997",
"v c #ADC998",
"b c #AECA98",
"n c #B3D19D",
/* pixels */
";;yu;;>;;;;;;;;;;;;;;;;;;;;;;;z;",
";;&u;;k;;;;;;;;;;;;;ss;;;;;;;;z;",
";;o&;;i;;;;;;;;l;;;;a&;;;;;;;v;;",
";;;o;;;;;;aa;;;7;;;;&o;;;;aa;;;;",
";;;;&;;v;&&a;;;;;;;;oo;;;;r&;;;;",
";;;;%&;g#p&o   ;;   ;;;;;&&o;;;;",
";n;;o&;;;&o; . ;; . ;>;;;&o;;;;;",
";v;;;o;;;&o; .    . ;c;;;;;;;;;;",
";;;;;;;;;o;; ++XX++ ;c;;;;;;;e;;",
";;;;;;;;;;;;  XXXX  ;#g;;;;;;e;;",
";;s;;;;;;;;; +XXXX+ ;;;;,6;;;;;;",
";;s&;;;;;;;; +XXXX+ ;;;;#*;;;;;;",
";;s&;;;;b;;;        ;;;;;>;;;u;;",
";;o&;;;;x;;; ++++++ ;;;;;;;;&&;;",
";;;;;;;;;;;  ++++++  ;;;;;;;&o;;",
";;;;;;;;;;; ++++++++ aa;;;;;o;;;",
";1;;;;;;;;; ++++++++ a&&;;;;;;;w",
";8;;9;;;vv; ++++++++ o&&;;;;;;;w",
";#e;4;;;#g; ++++++++ ;o&;;;;;;;;",
";;#h;;;;;#; .+++++.. ;;;;;;;;;;;",
";;;;;;;;;;; ..+++... ;;;;;;;;;;;",
";;;;;;;;;;; ...  ... ;;;;;;;;w;;",
";;;;;;;;;;; ...  ... i;;;;;;;<;;",
";;;;;;;;;;; ..    .. ;i;;;;;;;;;",
"d;;;aa;;;0; ..  &    ;i;;;#;;;;;",
"3;;;a&&;;;5     &    ;;;;@a@;;;;",
";;;;o&&;;#4;q;;;&o;;;;;;Ot&&O;;;",
";;;;;o&;;;#8#;;;;;;;;<;;;o&o;;;;",
";i2:;;;;;;;;;;;;;;;;;<;;;;o;;;;;",
";i@#;j;;;;;;#2;;;;;;i;;;;;;;;;;;",
";f#;;i-;;;;;#ii;;;;;i;;;;;;;;;;;",
";<;;;;=$;;;;;#i;;;;;;;;;;;;;;;;;"
};
