/* XPM */
static char *result[] = {
/* columns rows colors chars-per-pixel */
"32 32 46 1 ",
"  c black",
". c #265C42",
"X c #B86F50",
"o c #3E8948",
"O c #63C74D",
"+ c #839A71",
"@ c #90A97E",
"# c #E4A672",
"$ c #93AC81",
"% c #97B085",
"& c #99B187",
"* c #99B882",
"= c #9EBF86",
"- c #9CB588",
"; c #9DB688",
": c #9CB788",
"> c #9CB48A",
", c #9DB58A",
"< c #9EB78C",
"1 c #9FB88C",
"2 c #A0B98D",
"3 c #A0BB8C",
"4 c #A1BA8D",
"5 c #A1BA8E",
"6 c #A1BC8F",
"7 c #A3BC8F",
"8 c #A4BF90",
"9 c #A4BF91",
"0 c #9EC086",
"q c #A3C58A",
"w c #A5C78A",
"e c #A3C18E",
"r c #A5C98C",
"t c #A8CC8E",
"y c #A6C191",
"u c #A7C390",
"i c #A6C293",
"p c #A5C690",
"a c #A9C791",
"s c #A9C594",
"d c #A9C595",
"f c #ADC998",
"g c #AECA98",
"h c #B3D19D",
"j c #EAD4AA",
"k c white",
/* pixels */
">>qw>><>>>>>>>>>  >>>>>>>>>>>>s>",
">>=w>>a>>>>   > OO >tt>>>>>>>>s>",
">>+=>>e>>> OOo  oO   =>>>>>>>f>>",
">>>+>>>>> OOOOoooo.oo >>>>rr>>>>",
">>>>=>>f OOOOOo....ooO >>>0=>>>>",
">>>>*=> OOOOO.OOOo.oooO >==+>>>>",
">h>>+= OOOOO.OOOOOo.oooO =+>>>>>",
">f>>>+ OOOOo.OOOOoO.oooOO >>>>>>",
">>>>>> ooOO  OO oOO.oooOO >>>9>>",
">>>>>> oo  >   ooOO. OOOOo >>9>>",
">>t>>>>  >>>f ..OOO > OOO >>>>>>",
">>t=>>>>>>>>  ..OOO >>   ->>>>>>",
">>t=>>>>g>> OOOOOOO >>>>><>>>w>>",
">>+=>>>>d>> OOOOOO.  >>>>>>>==>>",
">>>>>>>>>  .OOOo   #X   >>>>=+>>",
">>>>>>>  X#.OOOOoooX##XX >>>+>>>",
">2>>>> XkkX#.OOOoooX#jjjX >>>>>8",
">6>>7 Xk#kj#####jj##Xjj#kX >>>>8",
">%9>5 Xkk#jXkkjjjjjj#j##kX >>>>>",
">>%i> #j#jjjkkjjjjj#j#jXjX >>>>>",
">>>>> j#jX#jkjjkjjjjj#X### >>>>>",
">>>>> jj#jjXX######XXjjXX# >>8>>",
">>>>> X#j#jjjjjjjjjjjjX##X >>1>>",
">>>>> jXjjXX##jjjj###XX##X >>>>>",
"y>>>r #X#X#jjj####jjj#XXX# >>>>>",
"4>>>r= j#X#Xjjjjjjjj#X##j r$>>>>",
">>>>+= kj#X#####X#XXXX#jk ==@>>>",
">>>>>+=  j#XXX#X#X#XX#j  +=+>>>>",
">e3,>>>>>  X#######jj  >>>+>>>>>",
">e$%>p>>>>>  X#jjjj  >>>>>>>>>>>",
">u%>>e:>>>>>%      >e>>>>>>>>>>>",
">1>>>>;&>>>>>%e>>>>>>>>>>>>>>>>>"
};
