/* XPM */
static char *result[] = {
/* columns rows colors chars-per-pixel */
"32 32 56 1 ",
"  c #839A71",
". c #90A97E",
"X c #93AC81",
"o c #97B085",
"O c #99B187",
"+ c #99B882",
"@ c #9EBF86",
"# c #9CB588",
"$ c #9DB688",
"% c #9CB788",
"& c #9CB48A",
"* c #9DB58A",
"= c #9EB78C",
"- c #9DB988",
"; c #9FB88C",
": c #A0B98D",
"> c #A0BB8C",
", c #A1BA8D",
"< c #A1BA8E",
"1 c #A2BB8F",
"2 c #A0BE8C",
"3 c #A1BC8E",
"4 c #A1BC8F",
"5 c #A2BD8E",
"6 c #A3BC8F",
"7 c #A2BD90",
"8 c #A3BE90",
"9 c #A5BE90",
"0 c #A4BF90",
"q c #A4BF91",
"w c #9EC086",
"e c #A2C48A",
"r c #A3C58A",
"t c #A5C78A",
"y c #A3C18E",
"u c #A4C88B",
"i c #A5C98C",
"p c #A8CC8E",
"a c #A6C191",
"s c #A5C390",
"d c #A6C290",
"f c #A7C390",
"g c #A5C092",
"h c #A6C293",
"j c #A5C690",
"k c #A6C492",
"l c #A9C791",
"z c #A8C693",
"x c #A9C594",
"c c #A9C595",
"v c #ABCF92",
"b c #ABC997",
"n c #ADC998",
"m c #AECA98",
"M c #B1D895",
"N c #B3D19D",
/* pixels */
"&&rt&&=&&&&&&&&&&&&&&&&&&&&&&&x&",
"&&@t&&l&&&&&&&&&&&&&pp&&&&&&&&x&",
"&& @&&y&&&&&&&&z&&&&i@&&&&&&&n&&",
"&&& &&&&&&ii&&&3&&&&@ &&&&ii&&&&",
"&&&&@&&n&@@i&&&&&&&&  &&&&w@&&&&",
"&&&&+@&gou@ &&&&&&&&&&&&&@@ &&&&",
"&N&& @&&&@ &&&&&&&&&&=&&&@ &&&&&",
"&n&&& &&&@ &&&&&M&&&&b&&&&&&&&&&",
"&&&&&&&&& &&&&&&uM&&&b&&&&&&&q&&",
"&&&&&&&&&&&&N&&&ou&&&og&&&&&&q&&",
"&&p&&&&&&&&&n&&&&&&&&&&&-2&&&&&&",
"&&p@&&&&&&&&&&&&&&&s&&&&o#&&&&&&",
"&&p@&&&&m&&&&&&&&&&s&&&&&=&&&t&&",
"&& @&&&&c&&&&ii&&&do&&&&&&&&@@&&",
"&&&&&&&&&&&&&vio&&5o&&&&&&&&@ &&",
"&&&&&&&&&&&&&u &&&o&&ii&&&&& &&&",
"&:&&&&&&&&&&&&&&&&&&&i@@&&&&&&&0",
"&4&&6&&&nn&&&&&&&&&&& @@&&&&&&&0",
"&oq&<&&&og&&&&&&&&&&&& @&&&&&&&&",
"&&oh&&&&&o&ii&&&&&k&k&&&&&&&&&&&",
"&&&&&&&&&&&@u &&&&&q&&&&&&&&&&&&",
"&&&&&&&&&&&   &&&&&q&&&&&&&&&0&&",
"&&&&&&&&&&&&&&&&&&&&&y&&&&&&&;&&",
"&&&&&&&&&&&&&&&&&&&&&&y&&&&&&&&&",
"a&&&ii&&&7&&&&&&@t&&&&y&&&o&&&&&",
",&&&i@@&&&1&8&&&@@ &&&&&&XiX&&&&",
"&&&& @@&&o<&9&&&@ &&&&&&.e@@.&&&",
"&&&&& @&&&o4o&&&&&&&&;&&& @ &&&&",
"&y>*&&&&&&&&&&&&&&&&&;&&&& &&&&&",
"&yXo&j&&&&&&o>&&&&&&y&&&&&&&&&&&",
"&fo&&y%&&&&&oyy&&&&&y&&&&&&&&&&&",
"&;&&&&$O&&&&&oy&&&&&&&&&&&&&&&&&"
};
