/* XPM */
static char *result[] = {
/* columns rows colors chars-per-pixel */
"32 32 122 2 ",
"   c #8CA57A",
".  c #8EA77C",
"X  c #91AA7F",
"o  c #6EC8EA",
"O  c #7ACCEC",
"+  c #76D1F3",
"@  c #7BD0F0",
"#  c #93AE81",
"$  c #94AD82",
"%  c #95AE83",
"&  c #96AF84",
"*  c #97AF85",
"=  c #9EBF86",
"-  c #9AB388",
";  c #9BB389",
":  c #9CB48A",
">  c #9CB58A",
",  c #9DB58A",
"<  c #9CB78A",
"1  c #9EB68B",
"2  c #9DB889",
"3  c #9EB98B",
"4  c #9FBA8B",
"5  c #A0BC8C",
"6  c #A2BE8C",
"7  c #B3AD9C",
"8  c #B4AE9D",
"9  c #B7B1A0",
"0  c #B1B3A5",
"q  c #BBB5A5",
"w  c #B4B6AB",
"e  c #BFB9A9",
"r  c #B0BBB6",
"t  c #B1BCB7",
"y  c #B2BDB8",
"u  c #C0BAAA",
"i  c #C2BCAE",
"p  c #C4BEAF",
"a  c #C5BFAF",
"s  c #A0C188",
"d  c #A3C18E",
"f  c #A5C48E",
"g  c #A6C58F",
"h  c #A7C68E",
"j  c #A6C78E",
"k  c #A7C88E",
"l  c #A8C98F",
"z  c #A8CA8F",
"x  c #A9CB8F",
"c  c #A8C493",
"v  c #A8C792",
"b  c #AACE90",
"n  c #ABD090",
"m  c #ADD291",
"M  c #AED692",
"N  c #BFC4BD",
"B  c #C6C0AF",
"V  c #C7C1B3",
"C  c #C8C2B4",
"Z  c #C9C3B4",
"A  c #CAC4B5",
"S  c #CDC7B8",
"D  c #D1CBBC",
"F  c #A6BEC2",
"G  c #8EC5D7",
"H  c #B5C7C5",
"J  c #BCC7C3",
"K  c #BEC9C4",
"L  c #ACCED6",
"P  c #AACFDB",
"I  c #B4D2D7",
"U  c #B9D4D9",
"Y  c #87D0ED",
"T  c #88D1ED",
"R  c #8ED2EC",
"E  c #97D5EE",
"W  c #9FD8ED",
"Q  c #81D4F4",
"!  c #80D5F6",
"~  c #84D5F4",
"^  c #8BD7F4",
"/  c #87D8F7",
"(  c #8EDAF7",
")  c #95DBF7",
"_  c #97DCF7",
"`  c #9DDBF4",
"'  c #ACDDEF",
"]  c #A8DCF0",
"[  c #AFDFF0",
"{  c #B3E0F1",
"}  c #B1E1F3",
"|  c #B5E2F3",
" . c #B9E3F2",
".. c #BEE5F2",
"X. c #C4CFCB",
"o. c #D7D1C2",
"O. c #D7D1C3",
"+. c #D9D3C3",
"@. c #D9D3C5",
"#. c #DCD6C7",
"$. c #DED8C9",
"%. c #DFDACB",
"&. c #C9D8D8",
"*. c #E0DBCA",
"=. c #E3DECE",
"-. c #E5DECE",
";. c #E4DFCF",
":. c #EBE4D1",
">. c #EEE7D3",
",. c #EAE5D4",
"<. c #EEE9D8",
"1. c #F3EDD9",
"2. c #C0E5F2",
"3. c #C2E6F2",
"4. c #C4E6F2",
"5. c #C6E7F4",
"6. c #C9E8F1",
"7. c #CCE8F1",
"8. c #CFEAF2",
"9. c #CBEAF4",
"0. c #D0E9F1",
"q. c #D1EAF2",
/* pixels */
": : : . . : : : : : : : : : : > > : : : : : : : : : > ; : 6 4 : ",
"4 : X 5 5   : : c * # h k 3 l 1 1 l 3 k h # * c c v = 2 % : : : ",
"6 : & d d g & : : : & : X s * : : * n f f x : j : : : : : & X : ",
": % : : x x X : : ,.=.D <.b n M M n b 5 g : : : j , < : : d 5 . ",
"; 2 : : : 5 5 : 5 5 g Z #.=.b m m b =.#.Z z d 5 d : : : x d 5 . ",
"> = : < : 5 d d %.%.Z A V 7 *.@.@.*.7 V A Z -.:.8 d 5 5 x g   : ",
": v : , : d z +.e $.@.w t y r X.N r y 0 S S S $.;.z d 5 X & : : ",
": c : j d 8 ;.B u q &.6. .2.` T } P U I H K a o.B +.d : : : : : ",
": c j : 5 :.$.o.q L 8.R o O @ @ ' ..4.3.7.0.G q u e %.5 : : c : ",
": * : : d -.S a G q.W o + + ~ ^ R + ! ( Y W q.L q $.%.5 ,.: * : ",
": # x : z Z S K 0.W o + + + ( O o + Q ( o o W 8.&.@.Z g =.& # : ",
": h f g Z A S H 7.Y o / ) ! ( + o + + ( / + o R 6.w A Z D : h : ",
": k f 5 #.V 0 I 3.( ( ( _ ) ) ( + + + _ ) + + o  .t V #.<.X k : ",
": 3 n b =.7 y U 4.! Q + + + + / + + + ) ! + + O 2.y 7 =.b s 3 : ",
": l * n b *.r P ..+ + + + + + + + + + ) ( ( ~ @ ` r *.b n * l : ",
": : n b >.O.X.[ @ o o + o ~ + + + + / ( + O ^ @ T X.@.m M : 1 > ",
"> 1 : M m @.X.T @ ^ O + ( / + + + + + + o o R ' } N @.m M : 1 > ",
": l * n b *.r ` @ ~ ( ( ) + + + + + + + + + + ..P r *.b n * l : ",
": 3 s b =.7 y 2.O + + ! ) + + + + + + + + Q ! 4.U y 7 =.b n 3 : ",
": k X <.#.V t  .o + + ) _ + + + o o o _ ( ( ( 3.I 0 V #.5 f k : ",
": h : D Z A w 6.R o + / ( + + o o o o ) / o Y 7.H S A Z g f h : ",
": # & =.g Z @.&.8.W o o ( Q + o o o o + + o W 0.K S Z z : x # : ",
": * : ,.5 %.$.q L q.W Y ( ! + R { { ] + o W q.G a S -.d : : * : ",
": c : : 5 %.e u q G 0.7.3.4...' E o o o R 8.L q o.$.:.5 : j c : ",
": : : : : d +.B o.a K H I U P } | 5.9. .6.&.q u B ;.8 d j : c : ",
": : & X 5 d z ;.$.S S S 0 y r N X.F J t w @.$.e +.z d : , : v : ",
":   g x 5 5 d 8 :.-.Z A V 7 *.@.O.i p V A Z %.%.d d 5 : < : = > ",
". 5 d x : : : d 5 d z Z #.=.b m >.C 9 #.Z g 5 5 : 5 5 : : : 2 ; ",
". 5 d : : < , j : : : g 5 b n M b 1.n <.D =.,.: : X x x : : % : ",
": X & : : : : : j : x f f n * : n n $ X : & : : : & g d d & : 6 ",
": : : % 2 = v c c * # h k 3 l 1 : : k k h # * c : :   5 5 X : 4 ",
": 4 6 : ; > : : : : : : : : : > : - : : : : : : : : : . . : : : "
};
