/* XPM */
static char *result[] = {
/* columns rows colors chars-per-pixel */
"32 32 203 2 ",
"   c #8EA77C",
".  c #90A87E",
"X  c #91AA7F",
"o  c #93AC81",
"O  c #95AE83",
"+  c #96AF84",
"@  c #97B085",
"#  c #98B186",
"$  c #99B187",
"%  c #9CB48A",
"&  c #9EB68B",
"*  c #9FBA8B",
"=  c #9FBA8C",
"-  c #A9A28D",
";  c #A0BC8B",
":  c #A0BE8B",
">  c #A0BC8C",
",  c #A0BE8C",
"<  c #A3BF8D",
"1  c #ABA590",
"2  c #ADA794",
"3  c #B0AA97",
"4  c #B3AD99",
"5  c #B2AC9A",
"6  c #B5AF9B",
"7  c #B4AF9C",
"8  c #B5AF9C",
"9  c #B4AF9D",
"0  c #B6B09D",
"q  c #B7B19E",
"w  c #B6B19F",
"e  c #B8B19F",
"r  c #B9B3A1",
"t  c #BAB3A1",
"y  c #B9B3A2",
"u  c #BBB4A1",
"i  c #BDB6A3",
"p  c #BBB5A5",
"a  c #BCB6A4",
"s  c #BDB6A4",
"d  c #BEB8A5",
"f  c #BEB8A7",
"g  c #BDB7A8",
"h  c #C0BAA8",
"j  c #C0BAAA",
"k  c #C3BCAA",
"l  c #C1BBAC",
"z  c #C4BDAC",
"x  c #C6BFAD",
"c  c #C5BEAE",
"v  c #C6BFAE",
"b  c #C6BFAF",
"n  c #A3C48B",
"m  c #A2C18C",
"M  c #A3C28D",
"N  c #A4C28E",
"B  c #A5C38E",
"V  c #A4C58D",
"C  c #A7C68E",
"Z  c #A8C78E",
"A  c #A7C88E",
"S  c #A7C98E",
"D  c #A8CA8F",
"F  c #A9CB8F",
"G  c #ABCD8F",
"H  c #AACE8F",
"J  c #ABCF8F",
"K  c #ABCF90",
"L  c #ACD190",
"P  c #ADD290",
"I  c #AED391",
"U  c #AED293",
"Y  c #ADD491",
"T  c #AED591",
"R  c #AFD692",
"E  c #B2D496",
"W  c #B0D892",
"Q  c #B3D798",
"!  c #C7C0AF",
"~  c #C8C1AF",
"^  c #C4DAAB",
"/  c #C7C0B0",
"(  c #C8C1B0",
")  c #C9C2B0",
"_  c #C8C2B1",
"`  c #C9C2B1",
"'  c #C9C2B2",
"]  c #C9C3B2",
"[  c #CAC3B3",
"{  c #CEC7B3",
"}  c #CAC3B5",
"|  c #CBC4B4",
" . c #CBC5B5",
".. c #CDC6B4",
"X. c #CDC7B5",
"o. c #CEC7B5",
"O. c #CCC6B6",
"+. c #CDC6B7",
"@. c #CEC7B6",
"#. c #CEC7B7",
"$. c #CFC9B5",
"%. c #CFC8B6",
"&. c #CDC7B8",
"*. c #CEC8B9",
"=. c #CFC9B9",
"-. c #CFC9BB",
";. c #D0C9B8",
":. c #D1CABA",
">. c #D1CBBA",
",. c #D0CABB",
"<. c #D4CCB8",
"1. c #D5CDBA",
"2. c #D1CBBD",
"3. c #D2CBBD",
"4. c #D2CCBC",
"5. c #D4CDBD",
"6. c #D6CFBC",
"7. c #D5CFBF",
"8. c #D7D1BD",
"9. c #D7D0BE",
"0. c #D9D2BB",
"q. c #DAD3BC",
"w. c #DBD4BE",
"e. c #D4CEC0",
"r. c #D6D0C1",
"t. c #D7D1C1",
"y. c #D6D0C2",
"u. c #D7D1C3",
"i. c #D8D2C0",
"p. c #D9D2C1",
"a. c #D9D3C2",
"s. c #D8D2C3",
"d. c #DAD3C2",
"f. c #DCD5C0",
"g. c #DDD5C0",
"h. c #DDD6C1",
"j. c #DCD5C2",
"k. c #DDD5C2",
"l. c #D9D3C5",
"z. c #DAD4C4",
"x. c #DDD6C4",
"c. c #DDD6C5",
"v. c #DED7C4",
"b. c #DED7C5",
"n. c #DCD5C6",
"m. c #DDD7C7",
"M. c #DED7C6",
"N. c #DFD8C6",
"B. c #DFD8C7",
"V. c #DED8C9",
"C. c #DFDAC8",
"Z. c #E1D9C3",
"A. c #E5DBC3",
"S. c #E1D9C5",
"D. c #E1DAC5",
"F. c #E0DBC5",
"G. c #E3DBC5",
"H. c #E1DAC6",
"J. c #E5DCC4",
"K. c #E5DDC6",
"L. c #E6DEC7",
"P. c #E0DBC9",
"I. c #E1DACA",
"U. c #E0DBCA",
"Y. c #E1DCCB",
"T. c #E7DFC9",
"R. c #E7DFCB",
"E. c #E5DECC",
"W. c #E8E0CA",
"Q. c #E8E1CC",
"!. c #E9E2CD",
"~. c #EAE2CC",
"^. c #E8E1CF",
"/. c #EAE3CF",
"(. c #ECE4CD",
"). c #EEE6CE",
"_. c #F0E7CF",
"`. c #E9E2D0",
"'. c #EDE6D1",
"]. c #EEE6D1",
"[. c #EEE7D3",
"{. c #EEE8D2",
"}. c #EFE9D3",
"|. c #EDE8D6",
" X c #EEE9D8",
".X c #F1E9D0",
"XX c #F0E8D2",
"oX c #F1E9D2",
"OX c #F0EAD4",
"+X c #F1EBD4",
"@X c #F2EAD4",
"#X c #F3EBD5",
"$X c #F2ECD7",
"%X c #F3EDD9",
"&X c #F4ECD8",
"*X c #F1ECDC",
"=X c #F4EEDC",
"-X c #F4EFDD",
";X c #F5EFDF",
":X c #F6F0E1",
">X c #F5F1E2",
",X c #F7F1E3",
"<X c #F7F3E7",
/* pixels */
"% n % , % % % % % % % L W % % % % % % % % % % % % % % B % % % % ",
"% n n > , O % % D O % F m > O % % % < < % o B J o Z Z , o A % % ",
"T K   X X % . N /.K % o m n C C C C %XH n n m B % % P P G %XG T ",
"%X%XK n n I % C %X%XC C C ^ %X,X;X;X%XC % n % % % G %X%X%X%X%X%X",
"2.2.g K n n C C g 2.g g g g /. X/././.Q K G G E E g 2.2./././.2.",
"2.l.l.g K R g g 2.2.2.2.2.g /././././.g g g g g g 2.2.2./././.2.",
"2.l././.g g /./././.2.2.2.g /./././.c.g l././.l.l.l./.g /././.2.",
"l./././././././././././.2.g /././.d.d.g l./././.l././.2.g /./.g ",
"2.Y././././.%X%X%X%X/.Y.2.g /./././.c.g u.%X%X%X/.%X%X2.2.g g l.",
"l.2.Y.Y./.%X%XY.Y.Y.Y.2.2.g 2././././.g y.Y.Y.%X%X,XY.2.l.l.l.l.",
"l.2.2.2.Y.Y.Y.2.2.2.2.2.2.g 2.2./././.l e.s.2.2.Y.Y.2.2.l.l.l.l.",
"l.l.l.2.2.Y.Y.2.l.`.V.l.2.2./.2.2.2.2.g 2.m.u.2.Y.Y.2.l././././.",
"!.!.&Xs.-.P.-.-.m.E.E.U.m.-.p !.!.-.-.s.3.M.s.s.t.t.I.&X&X!.!.!.",
"!.&X&Xs.-.-.-.[.&X&Xm.s.U.m.p !.!.!.-.p 3.s.3.M.^.U.p &X&X&X!.!.",
"&X%XY.g r.r.r.OX:X-X].r.r.n.y *.Q.$X$X|.|.} ,.O.n.,.y C.C.$X$X$X",
"C.C.y r.n.n.r.].-X-X].r.r.*.Q.Q.Q.Q.>X<X*X|.} [ ' ,.[ y C.C.C.C.",
"C.C.y p.p.z.O.N.}.}.W.W.7.O.W.W.#X#X=X=X=XW.O.X.@X@X] 7.w N.N.N.",
"N.w 7.z.B.z.O.N.N.N.W.W.O.&.O.W.W.W.W.#X#XN.w / #X#X}.'.7.b w N.",
"3 >.>.>.S.+.z 9 r v.v.v.| =.j v.T.T.T.g.v.9 | 5.XX+XXXXX5.5.5.9 ",
"5.5.a.a.b.>._ f v.8.v.v.| 5.9 v.v.T.1.$.9 | | c T.XXXXT.5.5.5.5.",
"].4.x.i.i. .x.! a h.5 h.' 4.5 5 h.L.<.{ 5 4.' ' 5 7 L.F.D.R.R.{.",
"oXi.x.H.H.;.x.i.! a a 5 '  .#.5 h.L.L.h.5 4.' ' q h.h.' k.(.{.oX",
"~.[ :.9.j.9.%.%.) %.9.9.:.:.:.:.3 f.f.3 :.~ ( K.K.K.K.8 :.o.Z.Z.",
"` ( K.oXoX:.:.[ :.:.9.j.j.S.9.:.( 3 3 ( :.~ ( K.K.K.K.3 :.h [ ` ",
"e v w.J..X.X.X.X.Xv v G..X.X(.6.;.x ;.;.x ;.v w.w.w.w.6 ;.d ;.0 ",
";.v w.J..X.X.X.X.Xv v 2 (.)._.6.6.x x x x ;.v 2 2 w.w.t ;.;.;.;.",
"@.z 1 q.q.A.A.A.A.z @.z 1 A.A.@.@.@.i i @.@.1 i 1 1 q.s @.1 @.@.",
"@.1 U 1 q.q.q.q.1 z @.@.@.1 1 @.@.z A.A.z 1 U 1 @.1 4 4 1 T 1 @.",
"- n % H - k 0.- K - ......- C - u k 0.0.- S H - - u - - T n P - ",
"n o ; o H - - I C Y - - - - n C - - - - - V , M G - H H n % n n ",
"  * ; * % % % * : : % % % D m n o % % % % O @ $ % % % @ X o % % ",
"O o O % % % % = $ & # % % + # O % % n % % % % % % % % % % % % % "
};
